<?xml version="1.0" encoding="UTF-8" standalone="no"?>
<svg width="101px" height="81px" viewBox="0 0 101 81" version="1.1" xmlns="http://www.w3.org/2000/svg" xmlns:xlink="http://www.w3.org/1999/xlink">
    <!-- Generator: Sketch 40.3 (33839) - http://www.bohemiancoding.com/sketch -->
    <title>Diamond Icon</title>
    <desc>Created with Sketch.</desc>
    <defs></defs>
    <g id="Carousel" stroke="none" stroke-width="1" fill="none" fill-rule="evenodd">
        <g id="Desktop" transform="translate(-546.000000, -336.000000)">
            <g id="Value-Prop-2" transform="translate(453.000000, 336.000000)">
                <g id="Diamond-Icon" transform="translate(93.000000, 0.000000)">
                    <polygon id="Fill-1" fill="#FFFFFF" points="50.1752462 77.8846154 2.00601538 18.6923077 15.9906308 1.55769231 84.3598615 1.55769231 98.3444769 18.6923077"></polygon>
                    <polygon id="Fill-2" fill="#ACF0F2" points="33.0829385 18.6923077 15.9906308 1.55769231 50.1752462 1.55769231"></polygon>
                    <polygon id="Fill-3" fill="#ACF0F2" points="67.2675538 18.6923077 50.1752462 1.55769231 84.3598615 1.55769231"></polygon>
                    <polygon id="Fill-4" fill="#ACF0F2" points="50.1752462 77.8846154 2.00601538 18.6923077 33.0829385 18.6923077"></polygon>
                    <polygon id="Fill-5" fill="#ACF0F2" points="50.1752462 77.8846154 98.3444769 18.6923077 67.2675538 18.6923077"></polygon>
                    <path d="M15.2544185,0.000467307692 L0.000310769231,18.6912173 L50.1755569,80.3493519 L100.350803,18.6912173 L85.0966954,0.000467307692 L15.2544185,0.000467307692 Z M4.01234154,18.6943327 L16.7274646,3.11585192 L83.6236492,3.11585192 L96.3387723,18.6943327 L50.1755569,75.4192558 L4.01234154,18.6943327 Z" id="Fill-6" fill="#4D5152"></path>
                    <polygon id="Fill-7" fill="#4D5152" points="2.00601538 20.25 98.3444769 20.25 98.3444769 17.1346154 2.00601538 17.1346154"></polygon>
                    <polygon id="Fill-8" fill="#4D5152" points="66.1696062 17.5903962 68.3667446 19.7945308 85.4590523 2.65835769 83.2619138 0.455780769"></polygon>
                    <polygon id="Fill-9" fill="#4D5152" points="49.0762108 2.65851346 66.1700723 19.7946865 68.3672108 17.5905519 51.2733492 0.455936538"></polygon>
                    <polygon id="Fill-10" fill="#4D5152" points="31.9842138 17.5903962 34.1813523 19.7945308 51.27366 2.65835769 49.0765215 0.455780769"></polygon>
                    <polygon id="Fill-11" fill="#4D5152" points="14.8922169 2.65851346 31.9845246 19.7946865 34.1816631 17.5905519 17.0893554 0.455936538"></polygon>
                    <polygon id="Fill-12" fill="#4D5152" points="48.6821554 78.3181212 31.5898477 19.1258135 34.57634 18.2581788 51.6686477 77.4504865"></polygon>
                    <polygon id="Fill-13" fill="#4D5152" points="51.6683369 78.3181212 48.6818446 77.4504865 65.7741523 18.2581788 68.7606446 19.1258135"></polygon>
                </g>
            </g>
        </g>
    </g>
</svg>