<?xml version="1.0" encoding="UTF-8" standalone="no"?>
<svg width="79px" height="79px" viewBox="0 0 79 79" version="1.1" xmlns="http://www.w3.org/2000/svg" xmlns:xlink="http://www.w3.org/1999/xlink">
    <!-- Generator: Sketch 40.3 (33839) - http://www.bohemiancoding.com/sketch -->
    <title>hamburger icon</title>
    <desc>Created with Sketch.</desc>
    <defs>
        <polygon id="path-1" points="0 79 79 79 79 0 0 0"></polygon>
    </defs>
    <g id="Carousel" stroke="none" stroke-width="1" fill="none" fill-rule="evenodd">
        <g id="Desktop" transform="translate(-216.000000, -339.000000)">
            <g id="Value-Prop-1" transform="translate(121.000000, 339.000000)">
                <g id="hamburger-icon" transform="translate(95.000000, 0.000000)">
                    <polygon id="Fill-1" fill="#ACF0F2" points="0 59.25 79 59.25 79 50.787125 0 50.787125"></polygon>
                    <g id="Group-29">
                        <path d="M77.5892857,70.5357143 C77.5892857,74.4321071 74.4321071,77.5892857 70.5357143,77.5892857 L8.46428571,77.5892857 C4.56789286,77.5892857 1.41071429,74.4321071 1.41071429,70.5357143 L1.41071429,63.4821429 L77.5892857,63.4821429 L77.5892857,70.5357143 L77.5892857,70.5357143 Z" id="Fill-2" fill="#FFB957"></path>
                        <path d="M5.64285714,38.0892857 L73.3571429,38.0892857 C75.6932857,38.0892857 77.5892857,39.9852857 77.5892857,42.3214286 C77.5892857,44.6575714 75.6932857,46.5535714 73.3571429,46.5535714 L5.64285714,46.5535714 C3.30671429,46.5535714 1.41071429,44.6575714 1.41071429,42.3214286 C1.41071429,39.9852857 3.30671429,38.0892857 5.64285714,38.0892857" id="Fill-4" fill="#FFFFFF"></path>
                        <path d="M1.41071429,26.8035714 L77.5892857,26.8035714 C77.5892857,18.2334821 77.5892857,1.41071429 39.5,1.41071429 C1.41071429,1.41071429 1.41071429,18.2334821 1.41071429,26.8035714" id="Fill-6" fill="#FFB957"></path>
                        <path d="M5.64285714,39.5 C4.08683929,39.5 2.82142857,40.7654107 2.82142857,42.3214286 C2.82142857,43.8760357 4.08683929,45.1428571 5.64285714,45.1428571 L73.3571429,45.1428571 C74.9131607,45.1428571 76.1785714,43.8760357 76.1785714,42.3214286 C76.1785714,40.7654107 74.9131607,39.5 73.3571429,39.5 L5.64285714,39.5 Z M73.3571429,47.9642857 L5.64285714,47.9642857 C2.53082143,47.9642857 0,45.4334643 0,42.3214286 C0,39.2093929 2.53082143,36.6785714 5.64285714,36.6785714 L73.3571429,36.6785714 C76.4691786,36.6785714 79,39.2093929 79,42.3214286 C79,45.4334643 76.4691786,47.9642857 73.3571429,47.9642857 L73.3571429,47.9642857 Z" id="Fill-8" fill="#4D5152"></path>
                        <mask id="mask-2" fill="white">
                            <use xlink:href="#path-1"></use>
                        </mask>
                        <g id="Clip-11"></g>
                        <polygon id="Fill-10" fill="#4D5152" mask="url(#mask-2)" points="0 33.8571429 79 33.8571429 79 31.0357143 0 31.0357143"></polygon>
                        <path d="M2.82693036,25.3928571 L76.1727875,25.3928571 C76.0726268,16.7889107 74.2062518,2.82142857 39.4998589,2.82142857 C4.79346607,2.82142857 2.92709107,16.7889107 2.82693036,25.3928571 M77.5891446,28.2142857 L1.41057321,28.2142857 C0.631858929,28.2142857 -0.000141071429,27.5836964 -0.000141071429,26.8035714 C-0.000141071429,18.1036964 -0.000141071429,0 39.4998589,0 C78.9998589,0 78.9998589,18.1036964 78.9998589,26.8035714 C78.9998589,27.5836964 78.3678589,28.2142857 77.5891446,28.2142857" id="Fill-12" fill="#4D5152" mask="url(#mask-2)"></path>
                        <path d="M5.64285714,59.25 C3.36032143,59.25 2.31921429,57.1677857 1.55883929,55.6484464 C0.962107143,54.4535714 0.499392857,53.6071429 0,53.6071429 L0,50.7857143 C2.28253571,50.7857143 3.32364286,52.8679286 4.08401786,54.3872679 C4.68075,55.5821429 5.14205357,56.4285714 5.64285714,56.4285714 L5.64285714,59.25 Z" id="Fill-13" fill="#4D5152" mask="url(#mask-2)"></path>
                        <path d="M5.64285714,59.25 L5.64285714,56.4285714 C6.14225,56.4285714 6.60496429,55.5821429 7.20169643,54.3872679 C7.96207143,52.8679286 9.00317857,50.7857143 11.2857143,50.7857143 L11.2857143,53.6071429 C10.7849107,53.6071429 10.3236071,54.4535714 9.726875,55.6484464 C8.9665,57.1677857 7.92539286,59.25 5.64285714,59.25" id="Fill-14" fill="#4D5152" mask="url(#mask-2)"></path>
                        <path d="M16.9285714,59.25 C14.6460357,59.25 13.6049286,57.1677857 12.8445536,55.6484464 C12.2478214,54.4535714 11.7851071,53.6071429 11.2857143,53.6071429 L11.2857143,50.7857143 C13.56825,50.7857143 14.6093571,52.8679286 15.3697321,54.3872679 C15.9664643,55.5821429 16.4277679,56.4285714 16.9285714,56.4285714 L16.9285714,59.25 Z" id="Fill-15" fill="#4D5152" mask="url(#mask-2)"></path>
                        <path d="M16.9285714,59.25 L16.9285714,56.4285714 C17.4279643,56.4285714 17.8906786,55.5821429 18.4874107,54.3872679 C19.2477857,52.8679286 20.2888929,50.7857143 22.5714286,50.7857143 L22.5714286,53.6071429 C22.070625,53.6071429 21.6093214,54.4535714 21.0125893,55.6484464 C20.2522143,57.1677857 19.2111071,59.25 16.9285714,59.25" id="Fill-16" fill="#4D5152" mask="url(#mask-2)"></path>
                        <path d="M28.2142857,59.25 C25.93175,59.25 24.8906429,57.1677857 24.1302679,55.6484464 C23.5335357,54.4535714 23.0708214,53.6071429 22.5714286,53.6071429 L22.5714286,50.7857143 C24.8539643,50.7857143 25.8950714,52.8679286 26.6554464,54.3872679 C27.2521786,55.5821429 27.7134821,56.4285714 28.2142857,56.4285714 L28.2142857,59.25 Z" id="Fill-17" fill="#4D5152" mask="url(#mask-2)"></path>
                        <path d="M28.2142857,59.25 L28.2142857,56.4285714 C28.7136786,56.4285714 29.1763929,55.5821429 29.773125,54.3872679 C30.5335,52.8679286 31.5746071,50.7857143 33.8571429,50.7857143 L33.8571429,53.6071429 C33.3563393,53.6071429 32.8950357,54.4535714 32.2983036,55.6484464 C31.5379286,57.1677857 30.4968214,59.25 28.2142857,59.25" id="Fill-18" fill="#4D5152" mask="url(#mask-2)"></path>
                        <path d="M39.5,59.25 C37.2174643,59.25 36.1763571,57.1677857 35.4159821,55.6484464 C34.81925,54.4535714 34.3565357,53.6071429 33.8571429,53.6071429 L33.8571429,50.7857143 C36.1396786,50.7857143 37.1807857,52.8679286 37.9411607,54.3872679 C38.5378929,55.5821429 38.9991964,56.4285714 39.5,56.4285714 L39.5,59.25 Z" id="Fill-19" fill="#4D5152" mask="url(#mask-2)"></path>
                        <path d="M39.5,59.25 L39.5,56.4285714 C39.9993929,56.4285714 40.4621071,55.5821429 41.0588393,54.3872679 C41.8192143,52.8679286 42.8603214,50.7857143 45.1428571,50.7857143 L45.1428571,53.6071429 C44.6420536,53.6071429 44.18075,54.4535714 43.5840179,55.6484464 C42.8236429,57.1677857 41.7825357,59.25 39.5,59.25" id="Fill-20" fill="#4D5152" mask="url(#mask-2)"></path>
                        <path d="M50.7857143,59.25 C48.5031786,59.25 47.4620714,57.1677857 46.7016964,55.6484464 C46.1049643,54.4535714 45.64225,53.6071429 45.1428571,53.6071429 L45.1428571,50.7857143 C47.4253929,50.7857143 48.4665,52.8679286 49.226875,54.3872679 C49.8236071,55.5821429 50.2849107,56.4285714 50.7857143,56.4285714 L50.7857143,59.25 Z" id="Fill-21" fill="#4D5152" mask="url(#mask-2)"></path>
                        <path d="M50.7857143,59.25 L50.7857143,56.4285714 C51.2851071,56.4285714 51.7478214,55.5821429 52.3445536,54.3872679 C53.1049286,52.8679286 54.1460357,50.7857143 56.4285714,50.7857143 L56.4285714,53.6071429 C55.9277679,53.6071429 55.4664643,54.4535714 54.8697321,55.6484464 C54.1093571,57.1677857 53.06825,59.25 50.7857143,59.25" id="Fill-22" fill="#4D5152" mask="url(#mask-2)"></path>
                        <path d="M62.0714286,59.25 C59.7888929,59.25 58.7477857,57.1677857 57.9874107,55.6484464 C57.3906786,54.4535714 56.9279643,53.6071429 56.4285714,53.6071429 L56.4285714,50.7857143 C58.7111071,50.7857143 59.7522143,52.8679286 60.5125893,54.3872679 C61.1093214,55.5821429 61.570625,56.4285714 62.0714286,56.4285714 L62.0714286,59.25 Z" id="Fill-23" fill="#4D5152" mask="url(#mask-2)"></path>
                        <path d="M62.0714286,59.25 L62.0714286,56.4285714 C62.5708214,56.4285714 63.0335357,55.5821429 63.6302679,54.3872679 C64.3906429,52.8679286 65.43175,50.7857143 67.7142857,50.7857143 L67.7142857,53.6071429 C67.2134821,53.6071429 66.7521786,54.4535714 66.1554464,55.6484464 C65.3950714,57.1677857 64.3539643,59.25 62.0714286,59.25" id="Fill-24" fill="#4D5152" mask="url(#mask-2)"></path>
                        <path d="M73.3571429,59.25 C71.0746071,59.25 70.0335,57.1677857 69.273125,55.6484464 C68.6763929,54.4535714 68.2136786,53.6071429 67.7142857,53.6071429 L67.7142857,50.7857143 C69.9968214,50.7857143 71.0379286,52.8679286 71.7983036,54.3872679 C72.3950357,55.5821429 72.8563393,56.4285714 73.3571429,56.4285714 L73.3571429,59.25 Z" id="Fill-25" fill="#4D5152" mask="url(#mask-2)"></path>
                        <path d="M73.3571429,59.25 L73.3571429,56.4285714 C73.8565357,56.4285714 74.31925,55.5821429 74.9159821,54.3872679 C75.6763571,52.8679286 76.7174643,50.7857143 79,50.7857143 L79,53.6071429 C78.4991964,53.6071429 78.0378929,54.4535714 77.4411607,55.6484464 C76.6807857,57.1677857 75.6396786,59.25 73.3571429,59.25" id="Fill-26" fill="#4D5152" mask="url(#mask-2)"></path>
                        <path d="M2.82142857,64.8928571 L2.82142857,70.5357143 C2.82142857,73.64775 5.35225,76.1785714 8.46428571,76.1785714 L70.5357143,76.1785714 C73.64775,76.1785714 76.1785714,73.64775 76.1785714,70.5357143 L76.1785714,64.8928571 L2.82142857,64.8928571 Z M70.5357143,79 L8.46428571,79 C3.79623214,79 0,75.2037679 0,70.5357143 L0,63.4821429 C0,62.7020179 0.632,62.0714286 1.41071429,62.0714286 L77.5892857,62.0714286 C78.368,62.0714286 79,62.7020179 79,63.4821429 L79,70.5357143 C79,75.2037679 75.2037679,79 70.5357143,79 L70.5357143,79 Z" id="Fill-27" fill="#4D5152" mask="url(#mask-2)"></path>
                        <polygon id="Fill-28" fill="#F28C13" mask="url(#mask-2)" points="11.2857143 31.0357143 28.2142857 47.9642857 67.7142857 31.0357143"></polygon>
                    </g>
                </g>
            </g>
        </g>
    </g>
</svg>