<?xml version="1.0" encoding="UTF-8" standalone="no"?>
<svg width="81px" height="81px" viewBox="0 0 81 81" version="1.1" xmlns="http://www.w3.org/2000/svg" xmlns:xlink="http://www.w3.org/1999/xlink">
    <!-- Generator: Sketch 40.3 (33839) - http://www.bohemiancoding.com/sketch -->
    <title>Puzzle icon</title>
    <desc>Created with Sketch.</desc>
    <defs></defs>
    <g id="Carousel" stroke="none" stroke-width="1" fill="none" fill-rule="evenodd">
        <g id="Desktop" transform="translate(-904.000000, -337.000000)">
            <g id="Value-Prop-3" transform="translate(809.000000, 337.000000)">
                <g id="Puzzle-icon" transform="translate(95.000000, 0.000000)">
                    <path d="M5.5862069,1.39655172 C3.27351724,1.39655172 1.39655172,3.27351724 1.39655172,5.5862069 L1.39655172,37.7068966 L12.5689655,37.7068966 L12.5689655,30.7241379 C12.5689655,26.8668621 15.6944483,23.7413793 19.5517241,23.7413793 C23.409,23.7413793 26.5344828,26.8668621 26.5344828,30.7241379 L26.5344828,37.7068966 L37.7068966,37.7068966 L37.7068966,1.39655172 L5.5862069,1.39655172 Z" id="Fill-1" fill="#FFFFFF"></path>
                    <path d="M75.4137931,1.39655172 L43.2931034,1.39655172 L43.2931034,12.5689655 L50.2758621,12.5689655 C54.1331379,12.5689655 57.2586207,15.6944483 57.2586207,19.5517241 C57.2586207,23.409 54.1331379,26.5344828 50.2758621,26.5344828 L43.2931034,26.5344828 L43.2931034,37.7068966 L79.6034483,37.7068966 L79.6034483,5.5862069 C79.6034483,3.27351724 77.7264828,1.39655172 75.4137931,1.39655172" id="Fill-3" fill="#67DDE0"></path>
                    <path d="M68.4310345,43.2931034 L68.4310345,50.2758621 C68.4310345,54.1331379 65.3055517,57.2586207 61.4482759,57.2586207 C57.591,57.2586207 54.4655172,54.1331379 54.4655172,50.2758621 L54.4655172,43.2931034 L43.2931034,43.2931034 L43.2931034,79.6034483 L75.4137931,79.6034483 C77.7264828,79.6034483 79.6034483,77.7264828 79.6034483,75.4137931 L79.6034483,43.2931034 L68.4310345,43.2931034 Z" id="Fill-5" fill="#FFFFFF"></path>
                    <path d="M1.39655172,43.2931034 L1.39655172,75.4137931 C1.39655172,77.7264828 3.27351724,79.6034483 5.5862069,79.6034483 L37.7068966,79.6034483 L37.7068966,68.4310345 L30.7241379,68.4310345 C26.8668621,68.4310345 23.7413793,65.3055517 23.7413793,61.4482759 C23.7413793,57.591 26.8668621,54.4655172 30.7241379,54.4655172 L37.7068966,54.4655172 L37.7068966,43.2931034 L1.39655172,43.2931034 Z" id="Fill-7" fill="#F28C13"></path>
                    <path d="M39.1034483,81 L5.5862069,81 C2.50541379,81 0,78.4945862 0,75.4137931 L0,41.8965517 L39.1034483,41.8965517 L39.1034483,58.6551724 L36.3103448,58.6551724 L36.3103448,44.6896552 L2.79310345,44.6896552 L2.79310345,75.4137931 C2.79310345,76.9527931 4.04581034,78.2068966 5.5862069,78.2068966 L36.3103448,78.2068966 L36.3103448,64.2413793 L39.1034483,64.2413793 L39.1034483,81 Z" id="Fill-9" fill="#4D5152"></path>
                    <path d="M75.4137931,81 L41.8965517,81 L41.8965517,41.8965517 L58.6551724,41.8965517 L58.6551724,44.6896552 L44.6896552,44.6896552 L44.6896552,78.2068966 L75.4137931,78.2068966 C76.9527931,78.2068966 78.2068966,76.9527931 78.2068966,75.4137931 L78.2068966,44.6896552 L64.2413793,44.6896552 L64.2413793,41.8965517 L81,41.8965517 L81,75.4137931 C81,78.4945862 78.4945862,81 75.4137931,81" id="Fill-11" fill="#4D5152"></path>
                    <path d="M39.1034483,39.1034483 L22.3448276,39.1034483 L22.3448276,36.3103448 L36.3103448,36.3103448 L36.3103448,2.79310345 L5.5862069,2.79310345 C4.04581034,2.79310345 2.79310345,4.04581034 2.79310345,5.5862069 L2.79310345,36.3103448 L16.7586207,36.3103448 L16.7586207,39.1034483 L0,39.1034483 L0,5.5862069 C0,2.50541379 2.50541379,0 5.5862069,0 L39.1034483,0 L39.1034483,39.1034483 Z" id="Fill-13" fill="#4D5152"></path>
                    <path d="M81,39.1034483 L41.8965517,39.1034483 L41.8965517,22.3448276 L44.6896552,22.3448276 L44.6896552,36.3103448 L78.2068966,36.3103448 L78.2068966,5.5862069 C78.2068966,4.04581034 76.9527931,2.79310345 75.4137931,2.79310345 L44.6896552,2.79310345 L44.6896552,16.7586207 L41.8965517,16.7586207 L41.8965517,0 L75.4137931,0 C78.4945862,0 81,2.50541379 81,5.5862069 L81,39.1034483 Z" id="Fill-15" fill="#4D5152"></path>
                    <path d="M30.7241379,69.8275862 C26.1029483,69.8275862 22.3448276,66.0694655 22.3448276,61.4482759 C22.3448276,56.8270862 26.1029483,53.0689655 30.7241379,53.0689655 C33.3803793,53.0689655 35.8215517,54.2881552 37.4233966,56.4137069 C37.8870517,57.0309828 37.7641552,57.9066207 37.1482759,58.3702759 C36.5296034,58.8353276 35.6553621,58.7096379 35.1917069,58.0951552 C34.1247414,56.6762586 32.4963621,55.862069 30.7241379,55.862069 C27.6433448,55.862069 25.137931,58.3674828 25.137931,61.4482759 C25.137931,64.529069 27.6433448,67.0344828 30.7241379,67.0344828 C32.4977586,67.0344828 34.1261379,66.2202931 35.1931034,64.7986034 C35.6581552,64.1827241 36.5337931,64.0598276 37.1496724,64.5206897 C37.7655517,64.9843448 37.8898448,65.8599828 37.4275862,66.4772586 C35.8257414,68.607 33.3831724,69.8275862 30.7241379,69.8275862" id="Fill-17" fill="#4D5152"></path>
                    <path d="M61.4482759,58.6551724 C56.8270862,58.6551724 53.0689655,54.8970517 53.0689655,50.2758621 C53.0689655,47.615431 54.2909483,45.1728621 56.4192931,43.5724138 C57.036569,43.1115517 57.9136034,43.2344483 58.3758621,43.8503276 C58.8381207,44.4676034 58.7138276,45.3432414 58.0979483,45.8068966 C56.6762586,46.8724655 55.862069,48.5008448 55.862069,50.2758621 C55.862069,53.3566552 58.3674828,55.862069 61.4482759,55.862069 C64.529069,55.862069 67.0344828,53.3566552 67.0344828,50.2758621 C67.0344828,48.5022414 66.2202931,46.8738621 64.7986034,45.8068966 C64.1827241,45.3432414 64.058431,44.4676034 64.5206897,43.8503276 C64.9857414,43.2344483 65.8599828,43.1115517 66.4772586,43.5724138 C68.607,45.1742586 69.8275862,47.6168276 69.8275862,50.2758621 C69.8275862,54.8970517 66.0694655,58.6551724 61.4482759,58.6551724" id="Fill-19" fill="#4D5152"></path>
                    <path d="M50.2758621,27.9310345 C47.6168276,27.9310345 45.1742586,26.7104483 43.5724138,24.5807069 C43.1101552,23.963431 43.2344483,23.0877931 43.8503276,22.6241379 C44.469,22.1632759 45.3432414,22.2861724 45.8068966,22.9020517 C46.8738621,24.3237414 48.5022414,25.137931 50.2758621,25.137931 C53.3566552,25.137931 55.862069,22.6325172 55.862069,19.5517241 C55.862069,16.470931 53.3566552,13.9655172 50.2758621,13.9655172 C48.5022414,13.9655172 46.8738621,14.7797069 45.8068966,16.2013966 C45.3418448,16.8172759 44.4676034,16.9401724 43.8503276,16.4793103 C43.2344483,16.0156552 43.1101552,15.1400172 43.5724138,14.5227414 C45.1742586,12.393 47.6168276,11.1724138 50.2758621,11.1724138 C54.8970517,11.1724138 58.6551724,14.9305345 58.6551724,19.5517241 C58.6551724,24.1729138 54.8970517,27.9310345 50.2758621,27.9310345" id="Fill-21" fill="#4D5152"></path>
                    <path d="M23.7427759,37.7068966 C23.3182241,37.7068966 22.8978621,37.5141724 22.6241379,37.1496724 C22.1618793,36.5323966 22.2861724,35.6567586 22.9020517,35.1931034 C24.3237414,34.1261379 25.137931,32.4977586 25.137931,30.7241379 C25.137931,27.6433448 22.6325172,25.137931 19.5517241,25.137931 C16.470931,25.137931 13.9655172,27.6433448 13.9655172,30.7241379 C13.9655172,32.4963621 14.7797069,34.1247414 16.1986034,35.1917069 C16.8144828,35.6553621 16.9373793,36.531 16.4737241,37.1482759 C16.010069,37.7613621 15.1358276,37.8884483 14.5171552,37.4233966 C12.3916034,35.8215517 11.1724138,33.3803793 11.1724138,30.7241379 C11.1724138,26.1029483 14.9305345,22.3448276 19.5517241,22.3448276 C24.1729138,22.3448276 27.9310345,26.1029483 27.9310345,30.7241379 C27.9310345,33.384569 26.7090517,35.8271379 24.5807069,37.4275862 C24.3293276,37.6161207 24.0346552,37.7068966 23.7427759,37.7068966" id="Fill-23" fill="#4D5152"></path>
                </g>
            </g>
        </g>
    </g>
</svg>