<?xml version="1.0" encoding="UTF-8" standalone="no"?>
<svg width="20px" height="25px" viewBox="0 0 20 25" version="1.1" xmlns="http://www.w3.org/2000/svg" xmlns:xlink="http://www.w3.org/1999/xlink">
    <!-- Generator: Sketch 40.3 (33839) - http://www.bohemiancoding.com/sketch -->
    <title>School Pin</title>
    <desc>Created with Sketch.</desc>
    <defs>
        <path d="M12.748886,6.31956565 C12.748886,2.8295247 9.89541977,0.000440735935 6.37526552,0 L6.37452459,0 C2.85407397,0 0.000163184309,2.82937779 0.000163184309,6.31956565 C0.000163184309,6.41153255 -0.00457876206,6.73253522 0.0370614545,6.99668296 C0.48576813,9.96415801 3.37020519,13.9723575 6.37526552,17.4437406 C6.37852561,17.4475604 6.3817857,17.4512332 6.38519397,17.4551998 C6.44772839,17.5274805 12.4013902,10.536674 12.748886,6.8560882 C12.7522943,6.81994785 12.748886,6.46456778 12.748886,6.31956565" id="path-1"></path>
        <filter x="-50%" y="-50%" width="200%" height="200%" filterUnits="objectBoundingBox" id="filter-2">
            <feMorphology radius="0.8" operator="dilate" in="SourceAlpha" result="shadowSpreadOuter1"></feMorphology>
            <feOffset dx="0" dy="2" in="shadowSpreadOuter1" result="shadowOffsetOuter1"></feOffset>
            <feGaussianBlur stdDeviation="1.5" in="shadowOffsetOuter1" result="shadowBlurOuter1"></feGaussianBlur>
            <feComposite in="shadowBlurOuter1" in2="SourceAlpha" operator="out" result="shadowBlurOuter1"></feComposite>
            <feColorMatrix values="0 0 0 0 0   0 0 0 0 0   0 0 0 0 0  0 0 0 0.5 0" type="matrix" in="shadowBlurOuter1"></feColorMatrix>
        </filter>
    </defs>
    <g id="Carousel" stroke="none" stroke-width="1" fill="none" fill-rule="evenodd">
        <g id="Desktop" transform="translate(-602.000000, -875.000000)">
            <g id="Hollywood-Public-School" transform="translate(455.000000, 812.000000)">
                <g id="Group">
                    <g id="School-Pin" transform="translate(151.000000, 65.000000)">
                        <g id="Fill-1">
                            <use fill="black" fill-opacity="1" filter="url(#filter-2)" xlink:href="#path-1"></use>
                            <use stroke="#FFFFFF" stroke-width="1.6" fill="#07B0C0" fill-rule="evenodd" xlink:href="#path-1"></use>
                        </g>
                        <path d="M3.36520999,5.93219741 L3.36520999,6.08631889 C3.36520999,6.60479253 3.362955,7.12326617 3.36797748,7.6416376 C3.36869498,7.70633183 3.39698489,7.77695381 3.43121978,7.83367623 C3.49733207,7.94333959 3.48185461,8.04084084 3.40559486,8.14355443 C3.61469419,8.317401 3.60751921,8.56933034 3.65384906,8.80204559 C3.65794905,8.82258831 3.66030654,8.84374424 3.66174154,8.86469576 C3.66768652,8.95422522 3.71196638,9.09046124 3.67106901,9.12429029 C3.55924187,9.21698802 3.41779232,9.29353775 3.27644527,9.32624257 C3.09932584,9.3671236 2.95439131,9.25081708 2.82524172,9.13962068 C2.8018718,9.11948677 2.79756681,9.06327536 2.80299929,9.02638023 C2.82995671,8.84313102 2.85158414,8.65783776 2.89811899,8.47928987 C2.92897139,8.3610415 2.99867117,8.25280898 3.06160596,8.11708396 C3.00020866,8.01437038 2.9888312,7.88907003 3.11726329,7.77460315 C3.13848072,7.75569567 3.13325323,7.70285694 3.13335573,7.66565521 C3.13417573,7.1008838 3.13192074,6.5360102 3.13602073,5.97123879 C3.13663572,5.88201595 3.10609082,5.84726707 3.02214359,5.82498691 C2.74508698,5.75109446 2.46895287,5.67290949 2.19589374,5.58562849 C2.14351641,5.56876507 2.10682153,5.50304882 2.06274667,5.45981713 C2.10671903,5.42057134 2.14443891,5.35996522 2.19548374,5.34524805 C3.62289416,4.93418931 5.05153458,4.52721867 6.48078999,4.1227009 C6.53388482,4.10767712 6.59938211,4.11237844 6.65350193,4.12770883 C8.0657424,4.52783189 9.47726537,4.93030561 10.8884808,5.33380136 C10.9356307,5.3472921 10.9885205,5.36579077 11.0213204,5.3991088 C11.0884577,5.46707351 11.0443828,5.55323028 10.9263032,5.58767255 C10.5819043,5.68813767 10.2370954,5.78686536 9.89218404,5.88518423 C8.83694992,6.18565979 7.78120331,6.4842957 6.7268917,6.78773513 C6.61250206,6.82064436 6.5090799,6.82279061 6.39438276,6.78967698 C5.42176339,6.50933533 4.44781151,6.23369499 3.47416714,5.95682823 C3.44638973,5.94895863 3.41768982,5.94395071 3.36520999,5.93219741" id="Fill-6" fill="#FFFFFF"></path>
                        <path d="M8.92262815,6.68449501 C8.92262815,7.16443828 8.92303815,7.62762033 8.92232065,8.09080238 C8.92221815,8.20383842 8.86656083,8.2824322 8.76313867,8.32668591 C8.05353344,8.63022754 7.34485072,8.93560882 6.63268301,9.2329161 C6.56708322,9.26030639 6.46960603,9.25846674 6.40349374,9.23076985 C5.69593851,8.934689 4.99043328,8.63349803 4.28851553,8.32423305 C4.22014825,8.29398109 4.13579102,8.20087455 4.13404853,8.13495389 C4.12082607,7.65552163 4.12687355,7.17557836 4.12687355,6.68449501 C4.55542467,6.80560505 4.97290583,6.92334242 5.39007949,7.0418974 C5.72258843,7.13633257 6.05355986,7.2366955 6.38801629,7.32387429 C6.47227102,7.34574564 6.5726182,7.34697207 6.65615543,7.32377209 C7.37160313,7.1257035 8.08489834,6.91966312 8.79880855,6.71628001 C8.83499093,6.70595755 8.87158332,6.69757694 8.92262815,6.68449501" id="Fill-8" fill="#FFFFFF"></path>
                    </g>
                </g>
            </g>
        </g>
    </g>
</svg>